<?xml version="1.0" encoding="UTF-8"?>
<svg width="118px" height="24px" viewBox="0 0 118 24" version="1.1" xmlns="http://www.w3.org/2000/svg" xmlns:xlink="http://www.w3.org/1999/xlink">
    <!-- Generator: Sketch 43.2 (39069) - http://www.bohemiancoding.com/sketch -->
    <title>webium-logotype</title>
    <desc>Created with Sketch.</desc>
    <defs></defs>
    <g id="webium-welcome" stroke="none" stroke-width="1" fill="none" fill-rule="evenodd">
        <g id="Desktop-HD" transform="translate(-661.000000, -33.000000)" fill="#FFFFFF">
            <path d="M752.5025,48.7358088 C751.936067,50.1130113 751.01469,52.2833385 750.671121,52.8467066 C750.209534,53.6035966 749.707505,54.2790389 749.165021,54.8730539 C748.622537,55.4670688 748.044372,55.946106 747.430508,56.3101796 C746.816644,56.6742533 746.176617,56.8562874 745.510409,56.8562874 C744.920338,56.8562874 744.41831,56.786827 744.004309,56.6479042 C743.590308,56.5089813 743.245312,56.2910194 742.969311,55.994012 C742.69331,55.6970045 742.474416,55.31617 742.312623,54.851497 C742.150829,54.386824 742.031865,53.8335361 741.955727,53.1916168 C741.051587,55.6347428 739.428917,56.8562874 737.087669,56.8562874 C736.202563,56.8562874 735.464986,56.6598822 734.874916,56.2670659 C734.284845,55.8742495 733.813747,55.3712606 733.461608,54.7580838 C733.10947,54.1449071 732.859645,53.4670696 732.712127,52.7245509 C732.56461,51.9820322 732.490852,51.2610813 732.490852,50.5616766 C732.490852,50.2861726 732.49787,50.0012507 732.511906,49.7069087 C732.387426,49.9818627 732.256804,50.2595994 732.120039,50.5401198 C731.739348,51.320962 731.318216,52.0898166 730.856628,52.8467066 C730.395041,53.6035966 729.893012,54.2790389 729.350528,54.8730539 C728.808044,55.4670688 728.229879,55.946106 727.616015,56.3101796 C727.002151,56.6742533 726.362124,56.8562874 725.695916,56.8562874 C724.896465,56.8562874 724.254059,56.722157 723.768679,56.4538922 C723.283298,56.1856274 722.907372,55.7640747 722.640888,55.1892216 C722.374405,54.6143684 722.198338,53.874256 722.112682,52.9688623 C722.027027,52.0634685 721.9842,50.9736591 721.9842,49.6994012 L721.9842,48.2204422 C721.916236,48.3533811 721.844976,48.4870859 721.770421,48.6215569 C721.542007,49.033535 721.287424,49.4311358 721.006664,49.8143713 C720.725905,50.1976067 720.423736,50.5377231 720.100149,50.8347305 C719.776562,51.131738 719.436325,51.3712566 719.079427,51.5532934 C718.72253,51.7353303 718.3585,51.8263473 717.987326,51.8263473 L717.887396,51.8263473 C717.516222,52.4874285 717.116503,53.1221526 716.688226,53.7305389 C716.259949,54.3389252 715.805506,54.8754468 715.324884,55.3401198 C714.844262,55.8047927 714.337475,56.1736513 713.804508,56.4467066 C713.271541,56.7197618 712.71479,56.8562874 712.134236,56.8562874 C710.525818,56.8562874 709.314764,56.2071921 708.501038,54.908982 C707.687311,53.610772 707.280454,51.6826475 707.280454,49.1245509 L707.280454,48.3712908 C706.942714,49.1232154 706.48279,50.0763305 706.145884,50.6838323 C705.712849,51.4646746 705.222717,52.2239484 704.675474,52.9616766 C704.128231,53.6994049 703.523894,54.3580809 702.862444,54.9377246 C702.200993,55.5173682 701.480071,55.9820342 700.699655,56.3317365 C699.919239,56.6814389 699.086491,56.8562874 698.201385,56.8562874 C696.926071,56.8562874 695.845878,56.6766485 694.960772,56.3173653 C694.075666,55.958082 693.357123,55.4766497 692.805121,54.8730539 C692.25312,54.2694581 691.853401,53.5772494 691.605952,52.7964072 C691.482396,52.4065173 691.389687,52.0088672 691.327825,51.6034538 C688.742056,53.0478374 687.594215,54.7987309 684.244204,56.4179641 C683.614826,56.7293429 682.877803,56.8850299 682.033112,56.8850299 C681.05592,56.8850299 680.144992,56.6766488 679.300301,56.2598802 C678.455609,55.8431117 677.681321,55.2682671 676.977411,54.5353293 C676.480124,54.0175343 676.022106,53.4339965 675.603351,52.784707 C675.184595,53.4339965 674.726577,54.0175343 674.22929,54.5353293 C673.52538,55.2682671 672.751092,55.8431117 671.9064,56.2598802 C671.061709,56.6766488 670.150781,56.8850299 669.173589,56.8850299 C668.328898,56.8850299 667.591875,56.7293429 666.962497,56.4179641 C666.333119,56.1065853 665.794843,55.6754519 665.347654,55.1245509 C664.900464,54.5736499 664.534023,53.9245546 664.248319,53.1772455 C663.962614,52.4299364 663.741093,51.6179685 663.583749,50.7413174 C663.426404,49.8646663 663.32289,48.944915 663.273202,47.9820359 C663.223514,47.0191569 663.206952,46.0538971 663.223514,45.0862275 C663.231796,44.4443082 663.252499,43.8574877 663.285624,43.3257485 C663.318749,42.7940093 663.349803,42.2766492 663.378788,41.7736527 C663.407772,41.2706562 663.424335,40.765272 663.428475,40.257485 C663.432616,39.7496981 663.409843,39.2035957 663.360155,38.6191617 C663.32703,38.2934115 663.248359,38.0227556 663.124139,37.8071856 C662.99992,37.5916157 662.848789,37.4071864 662.670741,37.2538922 C662.492694,37.100598 662.306367,36.9688628 662.111757,36.8586826 C661.917147,36.7485024 661.737032,36.6335335 661.571406,36.5137725 C661.40578,36.3940114 661.269141,36.2574858 661.161484,36.1041916 C661.053828,35.9508974 661,35.7544922 661,35.5149701 C661,35.1604773 661.043476,34.8443128 661.13043,34.5664671 C661.217383,34.2886214 661.354022,34.051498 661.540351,33.8550898 C661.72668,33.6586817 661.970975,33.507785 662.273241,33.4023952 C662.575508,33.2970055 662.94195,33.2443114 663.372577,33.2443114 C664.275237,33.2443114 665.032963,33.4287407 665.645779,33.7976048 C666.258594,34.1664689 666.747183,34.6766434 667.111559,35.3281437 C667.475936,35.979644 667.736792,36.7461034 667.894137,37.6275449 C668.051481,38.5089864 668.130152,39.4670607 668.130152,40.5017964 C668.130152,40.9329363 668.11566,41.4407156 668.086676,42.0251497 C668.057691,42.6095838 668.030778,43.2347272 668.005934,43.9005988 C667.98109,44.5664704 667.964527,45.2490983 667.956246,45.948503 C667.947965,46.6479077 667.966598,47.3305356 668.012145,47.9964072 C668.057692,48.6622788 668.136363,49.2922126 668.24816,49.8862275 C668.359957,50.4802425 668.52144,51.002393 668.732613,51.4526946 C668.943786,51.9029963 669.210853,52.2574837 669.533823,52.5161677 C669.856794,52.7748516 670.254289,52.9041916 670.726323,52.9041916 C671.239763,52.9041916 671.732492,52.714972 672.204525,52.3365269 C672.676559,51.9580819 673.11546,51.4574881 673.521243,50.8347305 C673.728253,50.5170319 673.925023,50.1756484 674.111557,49.8105772 C673.970937,49.449466 673.839308,49.0794735 673.716671,48.7005988 C673.339872,47.5365211 673.052102,46.3149765 672.853351,45.0359281 C672.6546,43.7568798 672.555226,42.4658748 672.555226,41.1628743 C672.555226,40.7508961 672.577999,40.2838349 672.623547,39.7616766 C672.669094,39.2395183 672.741554,38.7101823 672.840929,38.1736527 C672.940305,37.6371231 673.072803,37.1125774 673.238429,36.6 C673.404055,36.0874226 673.604873,35.6323373 673.84089,35.2347305 C674.076906,34.8371238 674.352255,34.5161689 674.666944,34.2718563 C674.827269,34.1473856 674.999416,34.0546226 675.183385,33.9935669 C675.259547,33.9347815 675.351437,33.9053892 675.459055,33.9053892 C675.507811,33.9053892 675.55591,33.9071527 675.603351,33.9106798 C675.650792,33.9071527 675.69889,33.9053892 675.747646,33.9053892 C675.855264,33.9053892 675.947154,33.9347815 676.023316,33.9935669 C676.207285,34.0546226 676.379432,34.1473856 676.539757,34.2718563 C676.854446,34.5161689 677.129795,34.8371238 677.365811,35.2347305 C677.601828,35.6323373 677.802646,36.0874226 677.968272,36.6 C678.133898,37.1125774 678.266396,37.6371231 678.365772,38.1736527 C678.465147,38.7101823 678.537607,39.2395183 678.583154,39.7616766 C678.628702,40.2838349 678.651475,40.7508961 678.651475,41.1628743 C678.651475,42.4658748 678.552101,43.7568798 678.35335,45.0359281 C678.154599,46.3149765 677.866829,47.5365211 677.49003,48.7005988 C677.367393,49.0794735 677.235764,49.449466 677.095144,49.8105772 C677.281678,50.1756484 677.478448,50.5170319 677.685458,50.8347305 C678.091241,51.4574881 678.530143,51.9580819 679.002176,52.3365269 C679.474209,52.714972 679.966938,52.9041916 680.480378,52.9041916 C680.952412,52.9041916 681.349907,52.7748516 681.672878,52.5161677 C681.995848,52.2574837 682.262915,51.9029963 682.474088,51.4526946 C682.685261,51.002393 682.846744,50.4802425 682.958541,49.8862275 C683.070338,49.2922126 683.149009,48.6622788 683.194556,47.9964072 C683.240103,47.3305356 683.258736,46.6479077 683.250455,45.948503 C683.242174,45.2490983 683.225611,44.5664704 683.200767,43.9005988 C683.175923,43.2347272 683.14901,42.6095838 683.120025,42.0251497 C683.091041,41.4407156 683.076549,40.9329363 683.076549,40.5017964 C683.076549,39.4670607 683.15522,38.5089864 683.312564,37.6275449 C683.469909,36.7461034 683.730765,35.979644 684.095142,35.3281437 C684.459518,34.6766434 684.948107,34.1664689 685.560922,33.7976048 C686.173738,33.4287407 686.931464,33.2443114 687.834124,33.2443114 C688.264751,33.2443114 688.631193,33.2970055 688.93346,33.4023952 C689.235727,33.507785 689.480021,33.6586817 689.66635,33.8550898 C689.852679,34.051498 689.989318,34.2886214 690.076271,34.5664671 C690.163225,34.8443128 690.206701,35.1604773 690.206701,35.5149701 C690.206701,35.7544922 690.152873,35.9508974 690.045217,36.1041916 C689.93756,36.2574858 689.800921,36.3940114 689.635295,36.5137725 C689.469669,36.6335335 689.289554,36.7485024 689.094944,36.8586826 C688.900334,36.9688628 688.714007,37.100598 688.53596,37.2538922 C688.357912,37.4071864 688.206781,37.5916157 688.082562,37.8071856 C687.958342,38.0227556 687.879671,38.2934115 687.846546,38.6191617 C687.796858,39.2035957 687.774085,39.7496981 687.778226,40.257485 C687.782366,40.765272 687.798929,41.2706562 687.827913,41.7736527 C687.856898,42.2766492 687.887952,42.7940093 687.921077,43.3257485 C687.954202,43.8574877 687.974905,44.4443082 687.983187,45.0862275 C687.999749,46.0538971 687.983187,47.0191569 687.933499,47.9820359 C687.883811,48.944915 687.780297,49.8646663 687.622952,50.7413174 C687.532222,51.2468266 689.220569,50.1186674 691.295551,49.3171932 C691.332345,49.0001728 691.385846,48.6820672 691.456056,48.3628743 C691.603573,47.6922122 691.824846,47.0503025 692.119882,46.4371257 C692.414917,45.823949 692.778947,45.2514997 693.211983,44.7197605 C693.645018,44.1880213 694.144667,43.7281457 694.710945,43.3401198 C695.277222,42.9520939 695.910111,42.6455101 696.60963,42.4203593 C697.309149,42.1952085 698.06814,42.0826347 698.886625,42.0826347 C699.362488,42.0826347 699.807414,42.1736518 700.221415,42.3556886 C700.635416,42.5377255 700.994688,42.7796392 701.29924,43.0814371 C701.603793,43.383235 701.8441,43.7329321 702.02017,44.1305389 C702.196239,44.5281457 702.284272,44.9473032 702.284272,45.388024 C702.284272,45.8191638 702.174825,46.2886202 701.955928,46.7964072 C701.737031,47.3041942 701.389656,47.792812 700.913793,48.2622754 C700.437929,48.7317389 699.821696,49.1437108 699.065073,49.4982036 C698.30845,49.8526964 697.397185,50.0874246 696.331251,50.2023952 C696.388355,50.6047924 696.495423,50.9880221 696.652458,51.3520958 C696.809493,51.7161695 697.018869,52.032334 697.280594,52.3005988 C697.542319,52.5688636 697.858763,52.7820351 698.229937,52.9401198 C698.60111,53.0982044 699.038898,53.1772455 699.543313,53.1772455 C700.171453,53.1772455 700.766273,53.0503007 701.327792,52.7964072 C701.889311,52.5425137 702.412752,52.2119781 702.898133,51.8047904 C703.355881,51.4207838 705.838742,49.0394139 707.284254,45.9541689 C707.290226,45.5494135 707.303235,45.1115988 707.323282,44.6407186 C707.351833,43.9700565 707.404178,43.2706623 707.480316,42.542515 C707.556454,41.8143676 707.661142,41.0718601 707.794384,40.3149701 C707.927626,39.55808 708.101313,38.8251532 708.315452,38.1161677 C708.52959,37.4071821 708.788932,36.7437157 709.093484,36.1257485 C709.398037,35.5077813 709.757309,34.9664694 710.17131,34.5017964 C710.585311,34.0371234 711.061167,33.67066 711.598893,33.4023952 C712.136618,33.1341304 712.743335,33 713.419061,33 C714.028166,33 714.530194,33.1532919 714.925161,33.4598802 C715.320128,33.7664686 715.629434,34.1736502 715.85309,34.6814371 C716.076746,35.1892241 716.231399,35.7736494 716.317054,36.4347305 C716.40271,37.0958117 716.445537,37.7808348 716.445537,38.4898204 C716.445537,38.9209602 716.395572,39.395207 716.295641,39.9125749 C716.195709,40.4299427 716.055332,40.9664643 715.874504,41.5221557 C715.693676,42.0778471 715.474782,42.6359253 715.217815,43.1964072 C714.960849,43.756889 714.677715,44.2958058 714.368404,44.8131737 C714.059092,45.3305415 713.721234,45.8095786 713.35482,46.2502994 C712.988405,46.6910202 712.610099,47.0646691 712.219891,47.3712575 C712.219891,47.6395223 712.22465,47.9604772 712.234167,48.3341317 C712.243684,48.7077863 712.267477,49.0958064 712.305546,49.4982036 C712.343615,49.9006008 712.405477,50.2982016 712.491132,50.691018 C712.576787,51.0838343 712.693372,51.4383218 712.84089,51.754491 C712.988407,52.0706603 713.173991,52.3245499 713.397647,52.5161677 C713.621303,52.7077854 713.89492,52.8035928 714.218507,52.8035928 C714.361266,52.8035928 714.520678,52.7580843 714.696748,52.6670659 C714.872817,52.5760474 715.046505,52.4443122 715.217815,52.2718563 C715.465264,52.0035915 715.627056,51.7976055 715.703194,51.6538922 C715.779332,51.5101789 715.8174,51.3760485 715.8174,51.251497 C715.8174,51.165269 715.805504,51.0766472 715.781711,50.9856287 C715.757918,50.8946103 715.722228,50.8203596 715.674642,50.7628743 C715.474779,50.532933 715.329643,50.2862289 715.239229,50.0227545 C715.148815,49.7592801 715.103609,49.4886241 715.103609,49.2107784 C715.103609,48.913771 715.155953,48.6215583 715.260643,48.3341317 C715.365333,48.0467051 715.50809,47.7880251 715.688918,47.5580838 C715.869746,47.3281426 716.083881,47.1437133 716.33133,47.0047904 C716.578779,46.8658676 716.845259,46.7964072 717.130777,46.7964072 C717.340157,46.7964072 717.535258,46.832335 717.716086,46.9041916 C717.896914,46.9760483 718.056326,47.0742509 718.194326,47.1988024 C718.332326,47.3233539 718.441773,47.4718554 718.52267,47.6443114 C718.603567,47.8167673 718.644015,48.0035918 718.644015,48.2047904 C718.644015,48.3197611 718.636877,48.4155685 718.622601,48.4922156 C718.608325,48.5688627 718.59167,48.6431134 718.572635,48.7149701 C718.553601,48.7868267 718.536946,48.8586823 718.52267,48.9305389 C718.508394,49.0023956 718.501256,49.0862271 718.501256,49.1820359 C718.501256,49.344911 718.520291,49.4574847 718.55836,49.5197605 C718.596429,49.5820362 718.653531,49.6131737 718.72967,49.6131737 C718.839134,49.6131737 720.679852,48.986062 721.986155,45.9388514 C721.987342,45.811529 721.98907,45.6782196 721.991338,45.5389222 C721.996097,45.2467051 722.012752,44.9520973 722.041303,44.6550898 C722.069855,44.3580823 722.110303,44.0682649 722.162648,43.7856287 C722.214993,43.5029926 722.29113,43.2538933 722.391061,43.0383234 C722.490992,42.8227534 722.617094,42.6479049 722.769371,42.5137725 C722.921647,42.37964 723.107231,42.3125749 723.326128,42.3125749 C723.45937,42.3125749 723.642574,42.326946 723.875747,42.3556886 C724.108921,42.3844313 724.358745,42.432335 724.625229,42.4994012 C724.891712,42.5664674 725.16295,42.6574845 725.438951,42.7724551 C725.714952,42.8874257 725.964776,43.0263465 726.188432,43.1892216 C726.412088,43.3520966 726.595292,43.5437115 726.738051,43.7640719 C726.88081,43.9844322 726.952189,44.2383219 726.952189,44.5257485 C726.952189,44.7940133 726.949809,45.1796382 726.945051,45.6826347 C726.940292,46.1856313 726.933154,46.736524 726.923637,47.3353293 C726.91412,47.9341347 726.906982,48.5401167 726.902223,49.1532934 C726.897465,49.7664701 726.895085,50.3125725 726.895085,50.7916168 C726.895085,51.0694625 726.899844,51.3305377 726.909361,51.5748503 C726.918879,51.8191629 726.952188,52.0323344 727.009292,52.2143713 C727.066396,52.3964081 727.154429,52.5401192 727.273395,52.645509 C727.392361,52.7508987 727.56129,52.8035928 727.780187,52.8035928 C728.027636,52.8035928 728.301253,52.6814383 728.601047,52.4371257 C728.900841,52.1928131 729.20301,51.8742535 729.507562,51.4814371 C729.78845,51.1191436 731.456085,49.656465 732.969465,46.4399264 C733.087497,45.9799028 733.232509,45.5334628 733.404505,45.1005988 C733.63292,44.5257456 733.916054,44.0203615 734.253917,43.5844311 C734.59178,43.1485008 734.991499,42.7988037 735.453087,42.5353293 C735.914674,42.271855 736.450012,42.1401198 737.059118,42.1401198 C737.420774,42.1401198 737.672977,42.2622742 737.815736,42.5065868 C737.958496,42.7508994 738.029874,43.0886206 738.029874,43.5197605 C738.029874,44.2383269 738.001323,44.9449067 737.944219,45.639521 C737.887115,46.3341352 737.825254,47.0191583 737.758633,47.6946108 C737.692012,48.3700633 737.630151,49.0455056 737.573047,49.7209581 C737.515944,50.3964106 737.487392,51.0694577 737.487392,51.7401198 C737.487392,51.9892228 737.511185,52.2263462 737.558772,52.451497 C737.606358,52.6766478 737.675357,52.8754482 737.765771,53.0479042 C737.856185,53.2203601 737.970391,53.3568857 738.108391,53.457485 C738.246391,53.5580843 738.410562,53.6083832 738.600907,53.6083832 C738.90546,53.6083832 739.243318,53.4910191 739.614491,53.2562874 C739.985664,53.0215557 740.33304,52.6814394 740.656627,52.2359281 C740.980214,51.7904169 741.251452,51.249105 741.470349,50.611976 C741.689246,49.9748471 741.798693,49.2586866 741.798693,48.4634731 L741.798693,46.3365269 C741.798693,45.9820342 741.805831,45.567667 741.820107,45.0934132 C741.834383,44.6191593 741.884348,44.1736548 741.970003,43.7568862 C742.055658,43.3401177 742.188898,42.9856302 742.369726,42.6934132 C742.550554,42.4011961 742.807517,42.2550898 743.140621,42.2550898 C743.273863,42.2550898 743.457067,42.2718561 743.69024,42.3053892 C743.923413,42.3389223 744.173238,42.3916164 744.439721,42.4634731 C744.706205,42.5353297 744.977443,42.6287419 745.253444,42.7437126 C745.529445,42.8586832 745.779269,42.9999992 746.002925,43.1676647 C746.226581,43.3353302 746.409785,43.5317354 746.552544,43.7568862 C746.695303,43.9820371 746.766682,44.2383219 746.766682,44.5257485 C746.766682,44.7940133 746.764302,45.1796382 746.759544,45.6826347 C746.754785,46.1856313 746.747647,46.736524 746.73813,47.3353293 C746.728613,47.9341347 746.721475,48.5401167 746.716716,49.1532934 C746.711958,49.7664701 746.709578,50.3125725 746.709578,50.7916168 C746.709578,51.0694625 746.714337,51.3305377 746.723854,51.5748503 C746.733372,51.8191629 746.766681,52.0323344 746.823785,52.2143713 C746.880889,52.3964081 746.968922,52.5401192 747.087888,52.645509 C747.206854,52.7508987 747.375783,52.8035928 747.59468,52.8035928 C747.842129,52.8035928 748.115746,52.6814383 748.41554,52.4371257 C748.696023,52.2085507 749.726168,51.3441486 752.554063,46.661967 C752.572823,46.5549396 752.596986,46.4392741 752.626551,46.3149701 C752.707448,45.9748486 752.847825,45.6419178 753.047688,45.3161677 C753.247551,44.9904175 753.511651,44.7101808 753.839997,44.4754491 C754.168342,44.2407174 754.579958,44.1233533 755.074856,44.1233533 C755.426995,44.1233533 755.719646,44.1784426 755.952819,44.2886228 C756.185993,44.3988029 756.373956,44.5449093 756.516715,44.7269461 C756.659474,44.9089829 756.766541,45.1173641 756.837921,45.3520958 C756.9093,45.5868275 756.959265,45.8287413 756.987817,46.0778443 C757.016369,46.35569 757.04492,46.7221534 757.073472,47.1772455 C757.102024,47.6323376 757.130575,48.1329314 757.159127,48.6790419 C757.349472,47.9508946 757.575504,47.2395244 757.837229,46.5449102 C758.098954,45.8502959 758.44157,45.2299429 758.865089,44.6838323 C759.288607,44.1377218 759.812049,43.6970077 760.43543,43.3616766 C761.058811,43.0263456 761.832077,42.8586826 762.755252,42.8586826 C763.830704,42.8586826 764.692003,43.3329294 765.339178,44.2814371 C765.986352,45.2299449 766.381312,46.7341214 766.524071,48.794012 C766.628761,48.2574823 766.747725,47.7161704 766.880967,47.1700599 C767.014209,46.6239494 767.178379,46.0994037 767.373483,45.5964072 C767.568587,45.0934107 767.804136,44.6239543 768.080137,44.188024 C768.356138,43.7520936 768.691616,43.3712591 769.086583,43.045509 C769.481549,42.7197589 769.94313,42.463474 770.471338,42.2766467 C770.999547,42.0898194 771.61578,41.9964072 772.320058,41.9964072 C773.014819,41.9964072 773.614398,42.1137713 774.118813,42.348503 C774.623228,42.5832347 775.039602,42.9592789 775.367948,43.4766467 C775.696294,43.9940146 775.93898,44.6670617 776.096015,45.4958084 C776.25305,46.324555 776.331566,47.3329282 776.331566,48.5209581 C776.331566,48.6550905 776.317291,48.8538909 776.288739,49.1173653 C776.260187,49.3808396 776.236394,49.6706571 776.21736,49.9868263 C776.198325,50.3029956 776.191187,50.6287408 776.195946,50.9640719 C776.200705,51.2994029 776.231635,51.6035914 776.288739,51.8766467 C776.345843,52.149702 776.443393,52.3724542 776.581393,52.5449102 C776.719394,52.7173661 776.907357,52.8035928 777.145289,52.8035928 C779.170383,52.1609377 779.258114,54.2790389 778.71563,54.8730539 C778.173146,55.4670688 777.59498,55.946106 776.981117,56.3101796 C776.367253,56.6742533 775.727226,56.8562874 775.061018,56.8562874 C774.261567,56.8562874 773.619161,56.722157 773.133781,56.4538922 C772.6484,56.1856274 772.272473,55.7640747 772.00599,55.1892216 C771.739507,54.6143684 771.56344,53.874256 771.477784,52.9688623 C771.392129,52.0634685 771.349302,50.9736591 771.349302,49.6994012 L771.349302,48.5784431 C771.349302,48.3005974 771.332647,48.01078 771.299336,47.708982 C771.266026,47.4071841 771.206544,47.134133 771.120889,46.8898204 C771.035233,46.6455078 770.921028,46.4443122 770.778269,46.2862275 C770.63551,46.1281429 770.454684,46.0491018 770.235787,46.0491018 C769.950269,46.0491018 769.68141,46.1928129 769.429203,46.4802395 C769.176995,46.7676661 768.941446,47.1485006 768.722549,47.6227545 C768.503652,48.0970084 768.301413,48.6335299 768.115826,49.2323353 C767.93024,49.8311407 767.754173,50.4395179 767.587621,51.057485 C767.421069,51.6754522 767.266415,52.2766438 767.123656,52.8610778 C766.980897,53.4455119 766.847657,53.9580816 766.723933,54.3988024 C766.666829,54.7532952 766.574037,55.0886212 766.445554,55.4047904 C766.317071,55.7209597 766.124349,55.996406 765.867383,56.2311377 C765.610417,56.4658694 765.277318,56.6526939 764.868075,56.7916168 C764.458833,56.9305396 763.944908,57 763.326286,57 C763.116906,57 762.919425,56.9784433 762.733839,56.9353293 C762.548252,56.8922154 762.384081,56.822755 762.241322,56.7269461 C762.098563,56.6311372 761.986737,56.5089828 761.90584,56.360479 C761.824944,56.2119753 761.784496,56.0323364 761.784496,55.8215569 C761.784496,55.6970054 761.791634,55.498205 761.80591,55.2251497 C761.820186,54.9520944 761.834461,54.6503011 761.848737,54.3197605 C761.863013,53.9892199 761.877289,53.6514987 761.891565,53.3065868 C761.905841,52.9616749 761.917737,52.6503008 761.927254,52.3724551 L761.927254,48.5784431 C761.927254,48.0131708 761.853496,47.5940133 761.705979,47.3209581 C761.558461,47.0479028 761.261051,46.9113772 760.813739,46.9113772 C760.528221,46.9113772 760.259363,47.0407173 760.007155,47.2994012 C759.754948,47.5580851 759.519399,47.8982015 759.300502,48.3197605 C759.081604,48.7413195 758.876986,49.2227518 758.686641,49.7640719 C758.496296,50.3053919 758.317849,50.8562846 758.151297,51.4167665 C757.984745,51.9772483 757.830092,52.5233506 757.687333,53.0550898 C757.544574,53.586829 757.411334,54.0586806 757.28761,54.4706587 C757.230506,54.8155706 757.135335,55.1413158 757.002093,55.4479042 C756.868851,55.7544926 756.67375,56.0227533 756.416784,56.2526946 C756.159818,56.4826359 755.829098,56.66467 755.424614,56.7988024 C755.02013,56.9329348 754.513343,57 753.904238,57 C753.694858,57 753.497378,56.9784433 753.311791,56.9353293 C753.126204,56.8922154 752.962034,56.822755 752.819275,56.7269461 C752.676516,56.6311372 752.56469,56.5089828 752.483793,56.360479 C752.402896,56.2119753 752.362448,56.0323364 752.362448,55.8215569 C752.362448,55.6970054 752.369586,55.4718579 752.383862,55.1461078 C752.398138,54.8203577 752.414793,54.3293446 752.433827,53.6730539 C752.452862,53.0167632 752.469517,52.1616819 752.483793,51.1077844 C752.492994,50.4285517 752.499229,49.6378967 752.5025,48.7358088 Z M675.603351,36.9287381 C675.511208,37.2215589 675.422667,37.562276 675.337725,37.9508982 C675.246631,38.3676668 675.1721,38.8538894 675.114131,39.4095808 C675.056162,39.9652722 675.027178,40.6119724 675.027178,41.3497006 C675.027178,42.0491053 675.089287,42.8179599 675.213506,43.6562874 C675.310581,44.3114255 675.440529,44.9724069 675.603351,45.6392439 C675.766172,44.9724069 675.89612,44.3114255 675.993195,43.6562874 C676.117414,42.8179599 676.179523,42.0491053 676.179523,41.3497006 C676.179523,40.6119724 676.150539,39.9652722 676.09257,39.4095808 C676.034601,38.8538894 675.96007,38.3676668 675.868976,37.9508982 C675.784034,37.562276 675.695493,37.2215589 675.603351,36.9287381 L675.603351,36.9287381 Z M699.771726,45.7904192 C699.771726,45.5029926 699.697969,45.263474 699.550451,45.0718563 C699.402933,44.8802386 699.134075,44.7844311 698.743867,44.7844311 C698.363176,44.7844311 698.025318,44.8970049 697.730283,45.1221557 C697.435247,45.3473065 697.185423,45.6443095 696.980802,46.0131737 C696.77618,46.3820378 696.614389,46.8083808 696.495423,47.2922156 C696.376458,47.7760503 696.3027,48.2766441 696.274148,48.794012 C696.730977,48.7556884 697.171144,48.6526954 697.594662,48.4850299 C698.018181,48.3173644 698.391728,48.0994025 698.715315,47.8311377 C699.038902,47.5628729 699.295864,47.253894 699.48621,46.9041916 C699.676555,46.5544893 699.771726,46.1832355 699.771726,45.7904192 Z M713.704577,36.5065868 C713.571336,36.5065868 713.445234,36.6598787 713.326268,36.9664671 C713.207302,37.2730554 713.093097,37.6730514 712.983648,38.1664671 C712.8742,38.6598827 712.77427,39.2203561 712.683856,39.8479042 C712.593442,40.4754522 712.517305,41.1125716 712.455442,41.7592814 C712.39358,42.4059913 712.343615,43.0311347 712.305546,43.6347305 C712.267477,44.2383264 712.248443,44.7652672 712.248443,45.2155689 C712.638651,44.8419143 712.974129,44.3676675 713.254889,43.7928144 C713.535648,43.2179612 713.764059,42.6119792 713.940129,41.9748503 C714.116198,41.3377214 714.244679,40.7029972 714.325576,40.0706587 C714.406473,39.4383202 714.446921,38.8730564 714.446921,38.3748503 C714.446921,38.2407179 714.442162,38.0682645 714.432645,37.857485 C714.423128,37.6467055 714.396955,37.4407196 714.354128,37.239521 C714.3113,37.0383223 714.237542,36.865869 714.132852,36.7221557 C714.028162,36.5784424 713.885406,36.5065868 713.704577,36.5065868 Z M722.983508,38.0299401 C722.983508,37.6083811 723.052507,37.2107803 723.190508,36.8371257 C723.328508,36.4634712 723.525988,36.1377259 723.782955,35.8598802 C724.039921,35.5820345 724.353986,35.3616775 724.725159,35.1988024 C725.096333,35.0359273 725.515086,34.954491 725.981432,34.954491 C726.257433,34.954491 726.521533,35.0047899 726.773741,35.1053892 C727.025948,35.2059885 727.247222,35.3568852 727.437567,35.5580838 C727.627912,35.7592824 727.780186,36.0035914 727.894394,36.291018 C728.008601,36.5784446 728.065703,36.9089802 728.065703,37.2826347 C728.065703,37.7712599 727.984808,38.2191596 727.823014,38.6263473 C727.661221,39.033535 727.442327,39.3856273 727.166326,39.6826347 C726.890325,39.9796422 726.571502,40.20958 726.209846,40.3724551 C725.848189,40.5353302 725.467504,40.6167665 725.067779,40.6167665 C724.677571,40.6167665 724.34923,40.5425157 724.082747,40.394012 C723.816264,40.2455082 723.602128,40.049103 723.440335,39.8047904 C723.278541,39.5604778 723.161956,39.2826363 723.090577,38.9712575 C723.019197,38.6598787 722.983508,38.3461094 722.983508,38.0299401 Z" id="webium-logotype"></path>
        </g>
    </g>
</svg>