<?xml version="1.0" encoding="UTF-8"?>
<svg width="62px" height="31px" viewBox="0 0 62 31" version="1.1" xmlns="http://www.w3.org/2000/svg" xmlns:xlink="http://www.w3.org/1999/xlink">
    <!-- Generator: Sketch 43.2 (39069) - http://www.bohemiancoding.com/sketch -->
    <title>batman</title>
    <desc>Created with Sketch.</desc>
    <defs></defs>
    <g id="webium-welcome" stroke="none" stroke-width="1" fill="none" fill-rule="evenodd">
        <g id="Desktop-HD" transform="translate(-689.000000, -1612.000000)" fill-rule="nonzero" fill="#070707">
            <g id="Group-5" transform="translate(308.000000, 1612.000000)">
                <path d="M442.985236,16.3291103 L442.985236,16.238814 C442.972436,15.8997702 442.944759,15.5683376 442.904973,15.2441702 C441.704827,5.65026865 428.691773,2.53729306 424.768206,1.41360505 C425.948978,2.92788535 426.58209,4.7919343 426.550261,6.49511043 C426.554759,9.12269985 424.955026,11.3946392 421.306845,11.3946392 C415.23554,11.3946392 415.492936,4.8818847 415.272212,0 C414.168244,1.93773908 413.873829,2.5144595 413.456943,3.32401305 C412.181378,3.00503511 410.709651,3.32401305 410.709651,3.32401305 L408.923098,0.0186820051 C408.796475,4.25603753 408.722785,11.8485428 402.835532,11.3576212 C399.289756,11.0621688 397.641934,9.02652212 397.637437,6.53039867 C397.596959,4.90748596 398.244256,3.08114699 399.508751,1.39699882 C384.270808,4.87323562 381.641143,12.3494973 381.166827,15.2452081 C381.095213,15.6880408 381.071342,16.0270846 381.061655,16.228781 C381.704454,24.5727181 390.411652,27.8905038 392.684976,28.9065973 C391.682375,26.9993029 391.244385,25.4767195 391.231585,24.3184352 C391.060333,20.0734685 396.51963,20.5450161 400.627595,24.6533274 C407.152805,14.9390308 412.078281,30.4918 412.078281,30.4918 C412.078281,30.4918 417.075371,14.7061976 423.490218,24.6533274 C430.635739,18.87955 432.927052,21.2365963 432.914252,24.367216 C432.914598,24.3959309 432.914252,24.4253378 432.914252,24.4543987 C432.920825,25.997048 432.378701,27.7341285 431.580564,28.8076518 C442.782156,23.5445159 442.984198,17.5465543 442.985236,16.3291103 Z" id="batman"></path>
            </g>
        </g>
    </g>
</svg>